<?xml version="1.0" encoding="UTF-8"?>
<svg id="_Слой_2" data-name="Слой 2" xmlns="http://www.w3.org/2000/svg" viewBox="0 0 557.62 316.24">
  <defs>
    <style>
      .cls-1 {
        letter-spacing: -.07em;
      }

      .cls-2 {
        font-family: AktivGroteskCorp-Light, 'Aktiv Grotesk Corp';
        font-weight: 300;
      }

      .cls-2, .cls-3 {
        font-size: 89px;
      }

      .cls-4 {
        letter-spacing: .01em;
      }

      .cls-5 {
        letter-spacing: 0em;
      }

      .cls-6 {
        letter-spacing: .03em;
      }

      .cls-7 {
        letter-spacing: .03em;
      }

      .cls-3 {
        font-family: AktivGroteskCorp-Bold, 'Aktiv Grotesk Corp';
        font-weight: 700;
      }

      .cls-8 {
        letter-spacing: 0em;
      }

      .cls-9 {
        fill: #231f20;
      }
    </style>
  </defs>
  <g id="_Слой_2-2" data-name="Слой 2">
    <g>
      <path class="cls-9" d="M117.41,227.64c1.29-1.2,.95-3.35-.68-4.01-16.5-6.73-28.03-21.12-29.63-37.48-1.16-11.87,2.66-27.26,13.43-35.13,11-8.03,28.73-7.85,38.23-7.75,8.82,.09,11.3,1.31,14.47-1.03,7.51-5.56-17.62-15.94,5.75-35.44,.96-.8,9.72-3.99,16.98-4.86,9.51-1.13,20.85,2.92,26.44,4.86,9.34,3.24,20.94,3.79,41.58,.85,.12-.02,.24-.04,.35-.08,152.29-44.64,204.09-60.31,211.13-62.98,1.64-.62,5.22-1.62,12.4-3.62,7.89-2.2,10.56-2.74,13.43-1.55,1.38,.57,.1,2.19,4.76,7.15,1.82,1.93,5.75,3.51,8.56,6.16,.45,.42,1.06,.65,1.67,.65,6.39,.07,11.07-.94,13.89-1.81,1.56-.48,3.14,.67,3.14,2.31h0c3.26-.13-10.82-18.1-16.13-26.2-.46-.69-.52-1.57-.17-2.32,1.52-3.27,5.36-10.63,1.83-13.32-2.84-2.16-7.53-.36-9.82,.52-11.54,4.42-28.73,10.15-47.57,17.33-.89,.34-1.5,1.17-1.56,2.12-.08,1.32-.21,2.93-1.5,4.31-4.72,5.02-12.78,1.7-14.16,1.7-8.73,0-65.94,17.47-196.66,53.96-.32,.09-.65,.12-.97,.07-3.19-.44-6.57-1.95-8.81-4.59-4.32-5.08,.42-9.35,3.62-16.02,5.69-11.88,1.74-25.44-6.72-28.41-15.16-5.34-20.23-8.19-35.13,3.1-17.85,13.52-19.73,17.71-34.61,24.8-14.57,6.94-21.47,1.23-77.49-3.1-29.92-2.31-37.21-1.4-44.43,3.1C6.61,81.16,2.85,102.28,1.34,110.71c-8.93,50.08,28.52,96.51,58.88,116.24,21.29,13.83,34.59,11.62,38.23,10.85,8.48-1.79,14.83-6.35,18.95-10.17Z"/>
      <circle class="cls-9" cx="446.08" cy="19.62" r="6.97"/>
      <circle class="cls-9" cx="463.68" cy="13.21" r="6.97"/>
      <circle class="cls-9" cx="481.01" cy="6.97" r="6.97"/>
      <text class="cls-3" transform="translate(120.66 217.85)"><tspan class="cls-6" x="0" y="0">GUI</tspan><tspan class="cls-1" x="159.49" y="0">T</tspan><tspan class="cls-7" x="208.53" y="0">AR</tspan></text>
      <text class="cls-2" transform="translate(187.03 296.84)"><tspan class="cls-8" x="0" y="0">S</tspan><tspan class="cls-4" x="57.76" y="0">CHOO</tspan><tspan class="cls-5" x="322.09" y="0">L</tspan></text>
    </g>
  </g>
</svg>